<svg xmlns="http://www.w3.org/2000/svg" width="512" height="512" viewBox="0 0 512 512">
  <defs>
    <radialGradient id="vig" cx="50%" cy="40%" r="78%">
      <stop offset="0" stop-color="#3a0e16"/>
      <stop offset="0.6" stop-color="#1a060e"/>
      <stop offset="1" stop-color="#07030a"/>
    </radialGradient>
    <radialGradient id="glow" cx="50%" cy="46%" r="42%">
      <stop offset="0" stop-color="#ff2b4a" stop-opacity="0.55"/>
      <stop offset="1" stop-color="#ff2b4a" stop-opacity="0"/>
    </radialGradient>
    <pattern id="scan" patternUnits="userSpaceOnUse" width="6" height="4">
      <rect width="6" height="2" fill="#000000" opacity="0.32"/>
    </pattern>
    <clipPath id="round"><rect width="512" height="512" rx="112"/></clipPath>
  </defs>

  <g clip-path="url(#round)">
    <rect width="512" height="512" fill="url(#vig)"/>
    <ellipse cx="256" cy="250" rx="180" ry="200" fill="url(#glow)"/>

    <g fill="#15101b">
      <rect x="196" y="40" width="16" height="28"/>
      <rect x="238" y="32" width="18" height="36"/>
      <rect x="286" y="42" width="14" height="26"/>
      <rect x="322" y="52" width="14" height="18"/>
      <rect x="160" y="56" width="14" height="44"/>
      <rect x="188" y="66" width="136" height="34"/>
      <rect x="154" y="100" width="204" height="34"/>
      <rect x="120" y="134" width="272" height="34"/>
      <rect x="86" y="168" width="34" height="34"/>
      <rect x="120" y="168" width="272" height="34"/>
      <rect x="392" y="168" width="34" height="34"/>
      <rect x="120" y="202" width="34" height="102"/>
      <rect x="358" y="202" width="34" height="102"/>
    </g>

    <g fill="#eab07e">
      <rect x="154" y="202" width="204" height="34"/>
      <rect x="154" y="236" width="204" height="34"/>
      <rect x="154" y="270" width="204" height="34"/>
      <rect x="188" y="304" width="136" height="34"/>
      <rect x="222" y="338" width="102" height="34"/>
      <rect x="256" y="372" width="68" height="40"/>
    </g>
    <g fill="#c9895a">
      <rect x="154" y="288" width="204" height="16"/>
      <rect x="222" y="354" width="102" height="18"/>
    </g>

    <g fill="#15101b">
      <rect x="154" y="202" width="30" height="22"/>
      <rect x="222" y="202" width="30" height="30"/>
      <rect x="290" y="202" width="30" height="22"/>
      <rect x="154" y="226" width="54" height="12"/>
      <rect x="304" y="226" width="54" height="12"/>
      <rect x="158" y="238" width="50" height="22"/>
      <rect x="304" y="238" width="50" height="22"/>
    </g>
    <g fill="#ff2b4a">
      <rect x="162" y="242" width="13" height="9"/>
      <rect x="308" y="242" width="13" height="9"/>
    </g>

    <rect x="330" y="200" width="9" height="96" fill="#c4313a"/>

    <rect x="239" y="318" width="40" height="11" fill="#7a3b2a"/>
    <rect x="267" y="311" width="5" height="24" fill="#a83a32"/>
    <rect x="268" y="312" width="2" height="22" fill="#cf5a4a"/>

    <g fill="#23212b">
      <rect x="120" y="406" width="272" height="34"/>
      <rect x="120" y="440" width="272" height="46"/>
    </g>
    <rect x="120" y="406" width="272" height="5" fill="#36333f"/>
    <rect x="252" y="410" width="8" height="76" fill="#131119"/>
    <g fill="#eab07e">
      <rect x="256" y="406" width="68" height="16"/>
      <rect x="86" y="440" width="40" height="46"/>
      <rect x="386" y="440" width="40" height="46"/>
    </g>

    <rect width="512" height="512" fill="url(#scan)"/>

    <rect x="14" y="16" width="486" height="480" rx="100" fill="none" stroke="#22e0ff" stroke-width="3" opacity="0.5"/>
    <rect x="22" y="16" width="486" height="480" rx="100" fill="none" stroke="#ff3df0" stroke-width="3" opacity="0.5"/>
    <rect x="18" y="16" width="486" height="480" rx="100" fill="none" stroke="#ff2b4a" stroke-width="5"/>
  </g>
</svg>
